<svg viewBox="0 0 404.204964 510" version="1.1" xmlns="http://www.w3.org/2000/svg" xmlns:xlink="http://www.w3.org/1999/xlink">
    <g>
        <g fill="#FFFFFF" fill-rule="nonzero">
            <polygon id="Path" points="72.8691728 14.3343057 68.6493478 14.3343057 68.6493478 0 97.3179592 0 97.3179592 14.3343057 91.2923111 14.3343057 95.6244152 63.2318785 104.541252 0 129.476581 0 138.393417 63.2318785 142.725521 14.3343057 136.821509 14.3343057 136.821509 0 162.954483 0 162.954483 14.3343057 158.734658 14.3343057 149.583907 83.1052892 125.13512 83.1052892 116.218284 18.5447741 107.423083 83.1052892 82.1322032 83.1052892 72.8598162 14.3343057"/>
            <polygon id="Path" points="179.094612 68.7709835 184.876988 68.7709835 184.876988 14.3343057 179.094612 14.3343057 179.094612 0 209.812318 0 209.812318 14.3343057 205.480214 14.3343057 205.480214 33.4872585 220.534977 33.4872585 220.534977 14.3343057 216.202873 14.3343057 216.202873 0 246.911222 0 246.911222 14.3343057 241.128846 14.3343057 241.128846 68.7709835 246.911222 68.7709835 246.911222 83.1052892 216.202873 83.1052892 216.202873 68.7709835 220.534977 68.7709835 220.534977 51.9103968 205.480214 51.9103968 205.480214 68.7709835 209.812318 68.7709835 209.812318 83.1052892 179.094612 83.1052892"/>
            <path d="M263.041995,68.7709835 L266.653641,68.7709835 L277.975122,14.3343057 L271.229016,14.3343057 L271.229016,0 L321.090319,0 L321.090319,14.3343057 L314.222577,14.3343057 L325.544059,68.7709835 L329.155705,68.7709835 L329.155705,83.1052892 L300.608729,83.1052892 L300.608729,68.8926193 L304.940833,68.8926193 L303.378282,59.741868 L286.639331,59.741868 L285.076779,68.8926193 L289.895426,68.8926193 L289.895426,83.1052892 L263.032638,83.1052892 L263.032638,68.7709835 L263.041995,68.7709835 Z M289.053333,45.5291981 L300.973636,45.5291981 L295.556167,13.6138478 L294.470802,13.6138478 L289.053333,45.5291981 Z" id="Shape"/>
            <polygon id="Path" points="353.623204 68.7709835 362.296769 68.7709835 362.296769 14.4559414 356.636028 14.4559414 356.636028 29.2674335 341.094722 29.2674335 341.094722 0 404.204964 0 404.204964 29.2674335 388.551379 29.2674335 388.551379 14.4559414 382.890638 14.4559414 382.890638 68.7803401 391.564203 68.7803401 391.564203 83.1146458 353.623204 83.1146458 353.623204 68.7803401"/>
            <polygon id="Path" points="4.21982498 121.055644 0 121.055644 0 106.721339 28.6686114 106.721339 28.6686114 121.055644 22.6429633 121.055644 26.9750674 169.953217 35.8919038 106.721339 60.8272332 106.721339 69.7440696 169.953217 74.0761737 121.055644 68.1721614 121.055644 68.1721614 106.721339 94.3051351 106.721339 94.3051351 121.055644 90.0853101 121.055644 80.9345589 189.826628 56.4857725 189.826628 47.5689361 125.266113 38.7737355 189.826628 13.492212 189.826628"/>
            <path d="M112.129451,178.271231 L112.129451,118.286092 L123.694204,106.721339 L157.658649,106.721339 L169.223402,118.286092 L169.223402,178.271231 L157.658649,189.835984 L123.694204,189.835984 L112.129451,178.271231 Z M145.373438,173.695856 L148.741813,170.43976 L148.741813,126.117563 L145.373438,122.861467 L135.979415,122.861467 L132.72332,126.117563 L132.72332,170.43976 L135.979415,173.695856 L145.373438,173.695856 Z" id="Shape"/>
            <polygon id="Path" points="191.74473 178.271231 191.74473 121.065001 187.047719 121.065001 187.047719 106.730695 217.400517 106.730695 217.400517 121.065001 212.338599 121.065001 212.338599 169.728659 215.594694 172.984754 223.66008 172.984754 226.916176 169.728659 226.916176 121.065001 221.975893 121.065001 221.975893 106.730695 252.328692 106.730695 252.328692 121.065001 247.510045 121.065001 247.510045 178.271231 235.945291 189.835984 203.309483 189.835984"/>
            <polygon id="Path" points="268.347185 175.492322 274.129561 175.492322 274.129561 121.055644 268.347185 121.055644 268.347185 106.721339 303.153723 106.721339 303.153723 121.055644 294.72343 121.055644 294.72343 175.492322 304.959546 175.492322 304.959546 157.303099 321.698497 157.303099 321.698497 189.826628 268.337828 189.826628 268.337828 175.492322"/>
            <path d="M337.726347,175.492322 L343.508724,175.492322 L343.508724,121.055644 L337.726347,121.055644 L337.726347,106.721339 L387.952557,106.721339 L399.51731,118.286092 L399.51731,178.271231 L387.952557,189.835984 L337.726347,189.835984 L337.726347,175.501679 L337.726347,175.492322 Z M375.667345,173.92977 L378.923441,170.561396 L378.923441,125.995927 L375.667345,122.627552 L364.102592,122.627552 L364.102592,173.939127 L375.667345,173.939127 L375.667345,173.92977 Z" id="Shape"/>
            <polygon id="Path" points="193.91546 282.223017 202.710661 282.223017 202.710661 270.7799 185.129616 227.786339 180.797512 227.786339 180.797512 213.452034 211.627497 213.452034 211.627497 227.786339 205.966757 227.786339 214.153778 251.757939 222.705708 227.786339 216.680059 227.786339 216.680059 213.452034 245.105399 213.452034 245.105399 227.786339 240.773295 227.786339 223.192251 270.7799 223.192251 282.223017 231.865815 282.223017 231.865815 296.557323 193.924817 296.557323 193.924817 282.223017"/>
            <path d="M261.722715,284.99257 L261.722715,225.00743 L273.287468,213.442677 L307.251913,213.442677 L318.816666,225.00743 L318.816666,284.99257 L307.251913,296.557323 L273.287468,296.557323 L261.722715,284.99257 Z M294.966702,280.417194 L298.335076,277.161099 L298.335076,232.838901 L294.966702,229.582806 L285.572679,229.582806 L282.316583,232.838901 L282.316583,277.161099 L285.572679,280.417194 L294.966702,280.417194 Z" id="Shape"/>
            <polygon id="Path" points="341.337993 284.99257 341.337993 227.786339 336.640982 227.786339 336.640982 213.452034 366.993781 213.452034 366.993781 227.786339 361.931862 227.786339 361.931862 276.449997 365.187958 279.706093 373.253344 279.706093 376.509439 276.449997 376.509439 227.786339 371.569156 227.786339 371.569156 213.452034 401.921955 213.452034 401.921955 227.786339 397.103308 227.786339 397.103308 284.99257 385.538555 296.557323 352.902746 296.557323"/>
            <polygon id="Path" points="59.0214101 388.944356 64.8037867 388.944356 64.8037867 334.507678 59.0214101 334.507678 59.0214101 320.173372 114.066267 320.173372 114.066267 345.220981 96.9624085 345.220981 96.9624085 334.498321 85.3976553 334.498321 85.3976553 354.736639 107.441796 354.736639 107.441796 371.840498 85.3976553 371.840498 85.3976553 388.944356 94.192856 388.944356 94.192856 403.278661 59.0214101 403.278661"/>
            <polygon id="Path" points="130.08476 388.944356 136.587594 388.944356 136.587594 334.507678 130.08476 334.507678 130.08476 320.173372 163.805933 320.173372 163.805933 334.507678 157.181463 334.507678 157.181463 388.944356 163.805933 388.944356 163.805933 403.278661 130.08476 403.278661"/>
            <polygon id="Path" points="182.107436 391.713908 182.107436 331.728769 193.672189 320.164016 228.123177 320.164016 239.323023 331.485497 239.323023 346.905168 218.85079 346.905168 218.85079 338.952061 216.081237 336.304144 205.966757 336.304144 202.710661 339.56024 202.710661 384.602895 205.966757 387.858991 216.081237 387.858991 218.85079 385.089438 218.85079 373.169134 208.493038 373.169134 208.493038 356.90737 239.323023 356.90737 239.323023 391.95718 228.123177 403.278661 193.672189 403.278661"/>
            <polygon id="Path" points="257.147339 388.944356 262.929715 388.944356 262.929715 334.507678 257.147339 334.507678 257.147339 320.173372 287.865045 320.173372 287.865045 334.507678 283.532941 334.507678 283.532941 353.660631 298.587704 353.660631 298.587704 334.507678 294.2556 334.507678 294.2556 320.173372 324.96395 320.173372 324.96395 334.507678 319.181573 334.507678 319.181573 388.944356 324.96395 388.944356 324.96395 403.278661 294.2556 403.278661 294.2556 388.944356 298.587704 388.944356 298.587704 372.083769 283.532941 372.083769 283.532941 388.944356 287.865045 388.944356 287.865045 403.278661 257.147339 403.278661"/>
            <polygon id="Path" points="353.623204 388.944356 362.296769 388.944356 362.296769 334.619957 356.636028 334.619957 356.636028 349.431449 341.094722 349.431449 341.094722 320.164016 404.204964 320.164016 404.204964 349.431449 388.551379 349.431449 388.551379 334.619957 382.890638 334.619957 382.890638 388.944356 391.564203 388.944356 391.564203 403.278661 353.623204 403.278661"/>
            <polygon id="Path" points="118.033464 495.665694 123.81584 495.665694 123.81584 441.229016 118.033464 441.229016 118.033464 426.894711 173.07832 426.894711 173.07832 451.942319 155.974462 451.942319 155.974462 441.21966 144.409709 441.21966 144.409709 461.457978 166.45385 461.457978 166.45385 478.561836 144.409709 478.561836 144.409709 495.665694 153.204909 495.665694 153.204909 510 118.033464 510"/>
            <path d="M190.781001,498.435247 L190.781001,438.450107 L202.345754,426.885354 L236.310199,426.885354 L247.874952,438.450107 L247.874952,498.435247 L236.310199,510 L202.345754,510 L190.781001,498.435247 Z M224.024988,493.859871 L227.393362,490.603776 L227.393362,446.281579 L224.024988,443.025483 L214.630965,443.025483 L211.374869,446.281579 L211.374869,490.603776 L214.630965,493.859871 L224.024988,493.859871 Z" id="Shape"/>
            <path d="M266.29809,495.665694 L272.080467,495.665694 L272.080467,441.229016 L266.29809,441.229016 L266.29809,426.894711 L317.001486,426.894711 L328.079696,437.972921 L328.079696,461.214706 L320.613132,468.802906 L328.079696,476.391106 L328.079696,495.665694 L331.934614,495.665694 L331.934614,510 L314.830756,510 L307.607463,502.776708 L307.607463,480.012109 L304.473003,476.999284 L292.664979,476.999284 L292.664979,495.665694 L297.960812,495.665694 L297.960812,510 L266.288734,510 L266.288734,495.665694 L266.29809,495.665694 Z M304.48236,462.543343 L307.61682,459.530519 L307.61682,444.35412 L304.48236,441.21966 L292.674335,441.21966 L292.674335,462.533986 L304.48236,462.533986 L304.48236,462.543343 Z" id="Shape"/>
            <path d="M359.283945,468.568991 L368.434696,459.539876 L379.03572,459.539876 L381.084815,457.369145 L381.084815,445.682756 L378.193627,442.791568 L369.042875,442.791568 L366.394958,445.561121 L366.394958,453.392592 L345.80109,453.392592 L345.80109,437.972921 L356.8793,426.894711 L390.366558,426.894711 L401.68804,438.216192 L401.68804,467.483626 L392.172382,476.999284 L382.057901,476.999284 L379.88717,479.048379 L379.88717,486.514943 L359.293302,486.514943 L359.293302,468.568991 L359.283945,468.568991 Z M359.283945,493.261049 L379.877814,493.261049 L379.877814,510 L359.283945,510 L359.283945,493.261049 Z" id="Shape"/>
        </g>
        <path d="M137.785239,294.33981 C137.785239,293.179592 138.720898,292.215862 139.909186,292.215862 C141.097474,292.215862 142.023777,293.170235 142.023777,294.321096 C142.023777,295.481314 141.088117,296.4544 139.899829,296.4544 C138.711542,296.4544 137.785239,295.500028 137.785239,294.349166 L137.785239,294.33981 Z M141.537234,294.330453 C141.537234,293.413507 140.835489,292.683692 139.909186,292.683692 C138.982883,292.683692 138.271782,293.422863 138.271782,294.330453 C138.271782,295.247399 138.973526,295.977214 139.899829,295.977214 C140.826132,295.977214 141.537234,295.238043 141.537234,294.330453 Z M139.029666,293.142165 L140.030822,293.142165 C140.330233,293.142165 140.573504,293.226375 140.72321,293.385437 C140.844846,293.507072 140.910342,293.675491 140.910342,293.881336 C140.910342,294.2556 140.713853,294.480159 140.423799,294.592438 L140.975838,295.397105 L140.395729,295.397105 L139.918543,294.676647 L139.525566,294.676647 L139.525566,295.397105 L139.029666,295.397105 L139.029666,293.142165 Z M140.021465,294.236887 C140.274093,294.236887 140.405086,294.105895 140.405086,293.918763 C140.405086,293.694204 140.25538,293.581925 140.002752,293.581925 L139.516209,293.581925 L139.516209,294.246244 L140.012109,294.246244 L140.021465,294.236887 Z" id="Shape" fill="#CA9600" fill-rule="nonzero"/>
        <path d="M140.320876,243.926468 L140.320876,265.961253 L138.627332,267.654797 L133.5467,267.654797 L133.5467,242.251637 L138.627332,242.251637 L140.320876,243.935825 L140.320876,243.926468 Z M121.691893,242.242281 L121.691893,267.64544 L108.611371,242.242281 L121.691893,242.242281 Z M75.9568496,267.64544 L75.9568496,242.242281 L82.7310254,242.242281 L82.7310254,267.64544 L75.9568496,267.64544 Z M94.585833,267.64544 L94.585833,242.242281 L107.694425,267.64544 L94.585833,267.64544 Z M143.539545,230.378117 L133.5467,230.378117 L133.5467,225.297485 L140.320876,225.297485 L140.320876,213.442677 L114.917717,213.442677 L114.917717,225.297485 L121.691893,225.297485 L121.691893,230.378117 L102.4828,230.378117 L93.7343827,213.442677 L75.9662062,213.442677 L75.9662062,225.297485 L82.740382,225.297485 L82.740382,230.378117 L59.0307667,230.378117 L59.0307667,242.232924 L64.1113985,242.232924 L64.1113985,267.636083 L59.0307667,267.636083 L59.0307667,279.490891 L82.740382,279.490891 L82.740382,284.571523 L75.9662062,284.571523 L75.9662062,296.426331 L101.369365,296.426331 L101.369365,284.571523 L94.5951896,284.571523 L94.5951896,279.490891 L113.822995,279.490891 L122.562056,296.426331 L133.556057,296.426331 L133.556057,279.490891 C133.556057,279.490891 143.539545,279.490891 143.539545,279.490891 L152.175684,270.854753 L152.175684,238.995542 L143.548902,230.36876 L143.539545,230.378117 Z" id="Shape" fill="#AE9142" fill-rule="nonzero"/>
    </g>
</svg>